<?xml version="1.0" encoding="utf-8"?>
<!-- Generator: Adobe Illustrator 28.3.0, SVG Export Plug-In . SVG Version: 6.00 Build 0)  -->
<svg version="1.1" id="Router_Medium_x5F_White" xmlns="http://www.w3.org/2000/svg" xmlns:xlink="http://www.w3.org/1999/xlink"
	 x="0px" y="0px" viewBox="0 0 670 230" style="enable-background:new 0 0 792 266.25;" xml:space="preserve">

<g class="st0" style="fill:#3346AA; fill-opacity:1" >
	<path transform="translate(240, 155)" d="M 14.046875 0 C 12.429688 0 11.039062 -0.582031 9.875 -1.75 C 8.707031 -2.925781 8.125 -4.316406 8.125 -5.921875 L 8.125 -64.296875 C 8.125 -65.972656 8.707031 -67.378906 9.875 -68.515625 C 11.039062 -69.648438 12.429688 -70.21875 14.046875 -70.21875 L 33.46875 -70.21875 C 38.363281 -70.21875 42.804688 -69.03125 46.796875 -66.65625 C 50.785156 -64.28125 53.945312 -61.113281 56.28125 -57.15625 C 58.625 -53.207031 59.796875 -48.820312 59.796875 -44 C 59.796875 -39.238281 58.609375 -34.9375 56.234375 -31.09375 C 53.859375 -27.257812 50.691406 -24.226562 46.734375 -22 C 42.785156 -19.769531 38.363281 -18.65625 33.46875 -18.65625 L 20.078125 -18.65625 L 20.078125 -5.921875 C 20.078125 -4.316406 19.488281 -2.925781 18.3125 -1.75 C 17.144531 -0.582031 15.722656 0 14.046875 0 Z M 20.078125 -59.25 L 20.078125 -29.734375 L 33.6875 -29.734375 C 38 -29.734375 41.4375 -31.160156 44 -34.015625 C 46.5625 -36.867188 47.84375 -40.304688 47.84375 -44.328125 C 47.84375 -47.035156 47.253906 -49.519531 46.078125 -51.78125 C 44.910156 -54.050781 43.265625 -55.863281 41.140625 -57.21875 C 39.023438 -58.570312 36.539062 -59.25 33.6875 -59.25 Z M 20.078125 -59.25 "/>
	<path transform="translate(300, 155)" d="M 13.0625 -56.5 C 11.300781 -56.5 9.78125 -57.140625 8.5 -58.421875 C 7.21875 -59.703125 6.578125 -61.257812 6.578125 -63.09375 C 6.578125 -64.914062 7.21875 -66.445312 8.5 -67.6875 C 9.78125 -68.9375 11.300781 -69.5625 13.0625 -69.5625 C 14.882812 -69.5625 16.4375 -68.9375 17.71875 -67.6875 C 19 -66.445312 19.640625 -64.914062 19.640625 -63.09375 C 19.640625 -61.257812 19 -59.703125 17.71875 -58.421875 C 16.4375 -57.140625 14.882812 -56.5 13.0625 -56.5 Z M 12.953125 0 C 11.335938 0 9.925781 -0.582031 8.71875 -1.75 C 7.507812 -2.925781 6.90625 -4.351562 6.90625 -6.03125 L 6.90625 -45.203125 C 6.90625 -46.890625 7.507812 -48.296875 8.71875 -49.421875 C 9.925781 -50.554688 11.375 -51.125 13.0625 -51.125 C 14.738281 -51.125 16.125 -50.554688 17.21875 -49.421875 C 18.320312 -48.296875 18.875 -46.890625 18.875 -45.203125 L 18.875 -6.03125 C 18.875 -4.351562 18.304688 -2.925781 17.171875 -1.75 C 16.035156 -0.582031 14.628906 0 12.953125 0 Z M 12.953125 0 "/>
	<path transform="translate(322, 155)" d="M 20.953125 -11.296875 L 47.40625 -11.296875 C 49.082031 -11.296875 50.488281 -10.710938 51.625 -9.546875 C 52.757812 -8.378906 53.328125 -7.132812 53.328125 -5.8125 C 53.328125 -4.207031 52.757812 -2.835938 51.625 -1.703125 C 50.488281 -0.566406 49.082031 0 47.40625 0 L 9.984375 0 C 8.078125 0 6.59375 -0.675781 5.53125 -2.03125 C 4.476562 -3.382812 3.953125 -4.753906 3.953125 -6.140625 C 3.953125 -6.941406 4.113281 -7.707031 4.4375 -8.4375 C 4.769531 -9.175781 5.410156 -10.019531 6.359375 -10.96875 L 34.34375 -39.9375 L 10.3125 -39.9375 C 8.707031 -39.9375 7.335938 -40.519531 6.203125 -41.6875 C 5.066406 -42.863281 4.5 -44.179688 4.5 -45.640625 C 4.5 -47.109375 5.066406 -48.390625 6.203125 -49.484375 C 7.335938 -50.578125 8.707031 -51.125 10.3125 -51.125 L 44.765625 -51.125 C 47.109375 -51.125 48.828125 -50.460938 49.921875 -49.140625 C 51.015625 -47.828125 51.597656 -46.660156 51.671875 -45.640625 C 51.671875 -44.617188 51.523438 -43.6875 51.234375 -42.84375 C 50.941406 -42 50.285156 -41.140625 49.265625 -40.265625 Z M 20.953125 -11.296875 "/>
     <path transform="translate(380, 155)" d="M 40.265625 0.984375 C 35.441406 0.984375 30.890625 0.0351562 26.609375 -1.859375 C 22.328125 -3.765625 18.578125 -6.363281 15.359375 -9.65625 C 12.140625 -12.945312 9.597656 -16.769531 7.734375 -21.125 C 5.867188 -25.476562 4.9375 -30.101562 4.9375 -35 C 4.9375 -39.675781 5.8125 -44.191406 7.5625 -48.546875 C 9.320312 -52.898438 11.773438 -56.773438 14.921875 -60.171875 C 18.066406 -63.578125 21.757812 -66.265625 26 -68.234375 C 30.238281 -70.210938 34.882812 -71.203125 39.9375 -71.203125 C 49.445312 -71.203125 57.75 -67.984375 64.84375 -61.546875 C 66.082031 -60.453125 66.832031 -59.117188 67.09375 -57.546875 C 67.351562 -55.972656 67.003906 -54.566406 66.046875 -53.328125 C 65.097656 -52.003906 63.78125 -51.359375 62.09375 -51.390625 C 60.414062 -51.429688 58.921875 -51.929688 57.609375 -52.890625 C 55.191406 -55.078125 52.554688 -56.789062 49.703125 -58.03125 C 46.847656 -59.28125 43.773438 -59.90625 40.484375 -59.90625 C 36.242188 -59.90625 32.332031 -58.84375 28.75 -56.71875 C 25.164062 -54.601562 22.289062 -51.695312 20.125 -48 C 17.96875 -44.3125 16.890625 -40.015625 16.890625 -35.109375 C 16.890625 -30.648438 17.914062 -26.550781 19.96875 -22.8125 C 22.019531 -19.082031 24.800781 -16.082031 28.3125 -13.8125 C 31.820312 -11.550781 35.804688 -10.421875 40.265625 -10.421875 C 43.703125 -10.421875 46.847656 -11.003906 49.703125 -12.171875 C 52.554688 -13.347656 55.191406 -14.992188 57.609375 -17.109375 C 58.921875 -18.140625 60.414062 -18.65625 62.09375 -18.65625 C 63.78125 -18.65625 65.097656 -18.03125 66.046875 -16.78125 C 67.003906 -15.539062 67.351562 -14.148438 67.09375 -12.609375 C 66.832031 -11.078125 66.082031 -9.726562 64.84375 -8.5625 C 61.1875 -5.195312 57.328125 -2.765625 53.265625 -1.265625 C 49.203125 0.234375 44.867188 0.984375 40.265625 0.984375 Z M 40.265625 0.984375 "/>
     <path transform="translate(450, 155)" d="M 7.125 -6.25 L 7.125 -64.734375 C 7.125 -66.410156 7.671875 -67.832031 8.765625 -69 C 9.867188 -70.175781 11.226562 -70.765625 12.84375 -70.765625 C 14.519531 -70.765625 15.960938 -70.175781 17.171875 -69 C 18.378906 -67.832031 18.984375 -66.410156 18.984375 -64.734375 L 18.984375 -6.25 C 18.984375 -4.207031 18.359375 -2.671875 17.109375 -1.640625 C 15.867188 -0.617188 14.519531 -0.0703125 13.0625 0 C 11.59375 0.0703125 10.234375 -0.4375 8.984375 -1.53125 C 7.742188 -2.632812 7.125 -4.207031 7.125 -6.25 Z M 7.125 -6.25 "/>
     <path transform="translate(470, 155)" d="M 30.171875 0.65625 C 25.421875 0.65625 21.050781 -0.53125 17.0625 -2.90625 C 13.070312 -5.28125 9.890625 -8.460938 7.515625 -12.453125 C 5.140625 -16.441406 3.953125 -20.8125 3.953125 -25.5625 C 3.953125 -30.394531 5.140625 -34.785156 7.515625 -38.734375 C 9.890625 -42.679688 13.070312 -45.820312 17.0625 -48.15625 C 21.050781 -50.5 25.421875 -51.671875 30.171875 -51.671875 C 35.003906 -51.671875 39.394531 -50.5 43.34375 -48.15625 C 47.289062 -45.820312 50.429688 -42.679688 52.765625 -38.734375 C 55.109375 -34.785156 56.28125 -30.394531 56.28125 -25.5625 C 56.28125 -20.8125 55.109375 -16.441406 52.765625 -12.453125 C 50.429688 -8.460938 47.289062 -5.28125 43.34375 -2.90625 C 39.394531 -0.53125 35.003906 0.65625 30.171875 0.65625 Z M 30.171875 -10.640625 C 32.953125 -10.640625 35.457031 -11.316406 37.6875 -12.671875 C 39.914062 -14.023438 41.6875 -15.832031 43 -18.09375 C 44.320312 -20.363281 44.984375 -22.851562 44.984375 -25.5625 C 44.984375 -28.34375 44.320312 -30.847656 43 -33.078125 C 41.6875 -35.304688 39.914062 -37.097656 37.6875 -38.453125 C 35.457031 -39.804688 32.953125 -40.484375 30.171875 -40.484375 C 27.460938 -40.484375 24.972656 -39.804688 22.703125 -38.453125 C 20.441406 -37.097656 18.632812 -35.304688 17.28125 -33.078125 C 15.925781 -30.847656 15.25 -28.34375 15.25 -25.5625 C 15.25 -22.851562 15.925781 -20.363281 17.28125 -18.09375 C 18.632812 -15.832031 20.441406 -14.023438 22.703125 -12.671875 C 24.972656 -11.316406 27.460938 -10.640625 30.171875 -10.640625 Z M 30.171875 -10.640625 "/>
     <path transform="translate(525, 155)" d="M 49.8125 -51.125 C 51.488281 -51.125 52.875 -50.554688 53.96875 -49.421875 C 55.070312 -48.296875 55.625 -46.925781 55.625 -45.3125 L 55.625 -5.265625 C 55.625 -3.804688 55.164062 -2.5625 54.25 -1.53125 C 53.34375 -0.507812 52.265625 0 51.015625 0 C 49.992188 0 48.96875 -0.4375 47.9375 -1.3125 C 46.914062 -2.195312 46.40625 -3.695312 46.40625 -5.8125 L 46.40625 -7.6875 C 44.582031 -4.976562 42.316406 -2.910156 39.609375 -1.484375 C 36.898438 -0.0546875 33.535156 0.65625 29.515625 0.65625 C 25.566406 0.65625 21.816406 -0.492188 18.265625 -2.796875 C 14.722656 -5.097656 11.851562 -8.171875 9.65625 -12.015625 C 7.457031 -15.859375 6.359375 -20.082031 6.359375 -24.6875 L 6.359375 -45.3125 C 6.359375 -46.925781 6.941406 -48.296875 8.109375 -49.421875 C 9.285156 -50.554688 10.675781 -51.125 12.28125 -51.125 C 13.894531 -51.125 15.285156 -50.554688 16.453125 -49.421875 C 17.628906 -48.296875 18.21875 -46.925781 18.21875 -45.3125 L 18.21875 -24.6875 C 18.21875 -20.738281 19.492188 -17.519531 22.046875 -15.03125 C 24.609375 -12.539062 27.753906 -11.296875 31.484375 -11.296875 C 35.285156 -11.296875 38.285156 -12.554688 40.484375 -15.078125 C 42.679688 -17.609375 43.78125 -20.847656 43.78125 -24.796875 L 43.78125 -45.3125 C 43.78125 -46.925781 44.382812 -48.296875 45.59375 -49.421875 C 46.800781 -50.554688 48.207031 -51.125 49.8125 -51.125 Z M 49.8125 -51.125 "/>
     <path transform="translate(582, 155)" d="M 50.25 -70.765625 C 51.9375 -70.765625 53.34375 -70.160156 54.46875 -68.953125 C 55.601562 -67.742188 56.171875 -66.300781 56.171875 -64.625 L 56.171875 -5.375 C 56.171875 -3.84375 55.710938 -2.546875 54.796875 -1.484375 C 53.890625 -0.421875 52.8125 0.109375 51.5625 0.109375 C 50.539062 0.109375 49.515625 -0.347656 48.484375 -1.265625 C 47.460938 -2.179688 46.953125 -3.769531 46.953125 -6.03125 L 46.953125 -8.34375 C 42.785156 -2.34375 36.753906 0.65625 28.859375 0.65625 C 24.460938 0.65625 20.363281 -0.53125 16.5625 -2.90625 C 12.757812 -5.28125 9.707031 -8.460938 7.40625 -12.453125 C 5.101562 -16.441406 3.953125 -20.8125 3.953125 -25.5625 C 3.953125 -30.394531 5.117188 -34.785156 7.453125 -38.734375 C 9.796875 -42.679688 12.941406 -45.820312 16.890625 -48.15625 C 20.847656 -50.5 25.238281 -51.671875 30.0625 -51.671875 C 32.84375 -51.671875 35.457031 -51.160156 37.90625 -50.140625 C 40.351562 -49.117188 42.492188 -47.691406 44.328125 -45.859375 L 44.328125 -64.625 C 44.328125 -66.300781 44.875 -67.742188 45.96875 -68.953125 C 47.070312 -70.160156 48.5 -70.765625 50.25 -70.765625 Z M 30.0625 -10.640625 C 32.84375 -10.640625 35.347656 -11.316406 37.578125 -12.671875 C 39.804688 -14.023438 41.597656 -15.832031 42.953125 -18.09375 C 44.304688 -20.363281 44.984375 -22.851562 44.984375 -25.5625 C 44.984375 -28.34375 44.304688 -30.847656 42.953125 -33.078125 C 41.597656 -35.304688 39.804688 -37.097656 37.578125 -38.453125 C 35.347656 -39.804688 32.84375 -40.484375 30.0625 -40.484375 C 27.351562 -40.484375 24.863281 -39.804688 22.59375 -38.453125 C 20.332031 -37.097656 18.539062 -35.304688 17.21875 -33.078125 C 15.90625 -30.847656 15.25 -28.34375 15.25 -25.5625 C 15.25 -22.851562 15.90625 -20.363281 17.21875 -18.09375 C 18.539062 -15.832031 20.332031 -14.023438 22.59375 -12.671875 C 24.863281 -11.316406 27.351562 -10.640625 30.0625 -10.640625 Z M 30.0625 -10.640625 "/>
</g>
<g>
  <defs>
          <path id="drop" d="M60 150
                       C 35 110, 20 80, 20 55
                       C 20 25, 40 10, 60 10
                       C 80 10, 100 25, 100 55
                       C 100 80, 85 110, 60 150 Z"/>
          <filter id="softShadow" x="-50%" y="-50%" width="200%" height="200%">
               <feDropShadow dx="0" dy="3" stdDeviation="4" flood-opacity="0.25" />
          </filter>
          <clipPath id="leftHalf">
               <rect x="0" y="0" width="60" height="160" />
          </clipPath>
     </defs>

     <!-- <rect x="0" y="0" width="100%" height="100%" fill="#e3f2fd"/> -->

     <g transform="translate(80,60) scale(0.7) rotate(0 60 80)">
          <use href="#drop" fill="#64b5f6"  
               transform="rotate(0 60 80) translate(0,70) rotate(180 60 80)" />
          <use href="#drop" fill="#4dd0e1"  
               transform="rotate(45 60 80) translate(0,70) rotate(180 60 80)" />
          <use href="#drop" fill="#81c784"  
               transform="rotate(90 60 80) translate(0,70) rotate(180 60 80)" />
          <use href="#drop" fill="#fff176"  
               transform="rotate(135 60 80) translate(0,70) rotate(180 60 80)" />
          <use href="#drop" fill="#ffb74d"  
               transform="rotate(180 60 80) translate(0,70) rotate(180 60 80)" />
          <use href="#drop" fill="#ef5350"  
               transform="rotate(225 60 80) translate(0,70) rotate(180 60 80)" />
          <use href="#drop" fill="#ec407a"  
               transform="rotate(270 60 80) translate(0,70) rotate(180 60 80)" />
          <use href="#drop" fill="#ab47bc"  
               transform="rotate(315 60 80) translate(0,70) rotate(180 60 80)" />
          <use href="#drop" fill="#64b5f6"  
               transform="rotate(0 60 80) translate(0,70) rotate(180 60 80)" clip-path="url(#leftHalf)" />
          <circle cx="60" cy="80" r="20" fill="#fffde7" />
     </g>
</g>
</svg>
