<?xml version="1.0" encoding="UTF-8"?>
<svg id="Layer_1" data-name="Layer 1" xmlns="http://www.w3.org/2000/svg" width="192" height="192" viewBox="0 0 192 192">
  <path d="M173.18,89.08c-1.7-28.78-25.8-51.6-55.28-51.6-20.96,0-39.2,11.53-48.6,28.55-5.13-2.01-11.21-2.62-17.5-1.44-12.85,2.43-22.37,11.63-23.6,21.84C12.4,88.25,0,102.22,0,119.02v2.68C0,139.75,14.28,154.52,31.73,154.52h20.08c-1.4-1.04-2.31-2.7-2.31-4.57v-3.31h-15.92c-14.74-3.27-25.46-14.46-25.46-26.32,0-7.24,2.86-13.81,7.48-18.59,4.61-4.77,10.98-7.73,17.98-7.73h.67c.36-12.23,11.11-22.04,24.32-22.04,5.43,0,10.45,1.66,14.51,4.46,6.24-18.77,24.1-32.32,45.16-32.32,26.25,0,47.53,21.05,47.53,47.02,0,1.29-.05,2.57-.16,3.83,10.73,3.1,18.65,13.32,18.65,25.36,0,7.24-2.86,13.81-7.47,18.59-4.62,4.78-10.98,7.74-17.98,7.74h-3.79c-1.75,0-5.52-1.72-5.52-1.72v.02c-.77-.47-1.54-.93-2.3-1.4-1.32-.66-10.66-5.22-19.2-4.52-3.59.29-6.76,1.29-6.76,1.29-2.36.74-4.22,1.66-6.21,2.63-2.67,1.31-2.79,1.59-5.24,2.7-.88.39-1.69.73-2.44,1.01-.95.37-1.8.67-2.48.89-.97.32-2.1.69-3.61,1.01-.61.14-2.21.47-4.62.67-4.22.35-8.12.09-12.5,0-2.09-.04-5.26-.11-9.28,0-1.8.05-5.28.18-10.24.19h-.06c-.35-.01-.66-.19-.92-.47-.11-.12-.21-.24-.31-.39-.32-.48-.51-1.01-.57-1.59h-.03v-11.2h.01l-.17-32.48c-.01-1.75,1.36-3.19,3.06-3.19h78.95c1.64,0,2.96,1.37,2.95,3.06l-.16,32.46-11.82-6.11c-.51-.26-1.1-.32-1.65-.16l-5.03,1.52s-10.87-9.89-11.92-10.22c-1.06-.32-1.72,0-1.72,0l-6.8,3.35s-10.39-9.94-12.04-11.25c-1.65-1.31-3.16,0-3.16,0l-26.07,23.25v8.51c20.13-.02,28.43-.02,29.4,0h.55c1.16-.02,2.07-.2,2.86-.37,2.37-.53,4.03-.89,6.23-1.79.74-.3,1.99-.94,4.48-2.22,2.41-1.24,2.79-1.49,4.52-2.35,1.84-.9,2.79-1.36,4.16-1.87,1.89-.7,3.4-1.06,4.08-1.2.42-.09,2.18-.47,4.53-.62.51-.03,2.27-.15,4.66,0,1.9.12,4.02.24,6.66,1.03,1.64.48,2.78,1,4.31,1.71,2.98,1.37,5.93,3.13,5.93,3.13l5.6,2.36v-42.56c0-4.13-3.37-7.5-7.5-7.5H61.34c-4.13,0-7.5,3.37-7.5,7.5v47.25c0,4.13,3.37,7.5,7.5,7.5h98.93c17.45,0,31.73-14.76,31.73-32.81v-2.68c0-13.3-7.76-24.81-18.82-29.94h.01,0ZM99.93,132.41l-4.63-2.2c-.29-.14-.63-.11-.9.08l-4.98,3.72-4.79-2.48c-.2-.11-.42-.13-.65-.07l-3.12.81,12.8-11.74c.62-.58,1.6-.57,2.22.02l9.13,8.68-5.08,3.18h-.01Z" fill="#1577ba"/>
  <circle cx="131.13" cy="114.54" r="10.42" fill="#faaf43"/>
</svg>