<svg width="192px" height="192px" viewBox="0 0 280 280" xmlns="http://www.w3.org/2000/svg">
     <defs>
          <path id="drop" d="M60 150
                       C 35 110, 20 80, 20 55
                       C 20 25, 40 10, 60 10
                       C 80 10, 100 25, 100 55
                       C 100 80, 85 110, 60 150 Z"/>
          <filter id="softShadow" x="-50%" y="-50%" width="200%" height="200%">
               <feDropShadow dx="0" dy="3" stdDeviation="4" flood-opacity="0.25" />
          </filter>
          <clipPath id="leftHalf">
               <rect x="0" y="0" width="60" height="160" />
          </clipPath>
     </defs>

     <!-- <rect x="0" y="0" width="100%" height="100%" fill="#e3f2fd"/> -->

     <g transform="translate(80,60) scale(1) rotate(0 60 80)">
          <use href="#drop" fill="#64b5f6" 
               transform="rotate(0 60 80) translate(0,70) rotate(180 60 80)" />
          <use href="#drop" fill="#4dd0e1" 
               transform="rotate(45 60 80) translate(0,70) rotate(180 60 80)" />
          <use href="#drop" fill="#81c784" 
               transform="rotate(90 60 80) translate(0,70) rotate(180 60 80)" />
          <use href="#drop" fill="#fff176" 
               transform="rotate(135 60 80) translate(0,70) rotate(180 60 80)" />
          <use href="#drop" fill="#ffb74d" 
               transform="rotate(180 60 80) translate(0,70) rotate(180 60 80)" />
          <use href="#drop" fill="#ef5350" 
               transform="rotate(225 60 80) translate(0,70) rotate(180 60 80)" />
          <use href="#drop" fill="#ec407a" 
               transform="rotate(270 60 80) translate(0,70) rotate(180 60 80)" />
          <use href="#drop" fill="#ab47bc" 
               transform="rotate(315 60 80) translate(0,70) rotate(180 60 80)" />
          <use href="#drop" fill="#64b5f6" 
               transform="rotate(0 60 80) translate(0,70) rotate(180 60 80)" clip-path="url(#leftHalf)" />
          <circle cx="60" cy="80" r="20" fill="#fffde7" />
     </g>
</svg>
